<?xml version="1.0" encoding="utf-8"?>
<!-- Generator: Adobe Adobe Illustrator 24.2.0, SVG Export Plug-In . SVG Version: 6.00 Build 0)  -->
<svg version="1.1" id="Layer_1" xmlns="http://www.w3.org/2000/svg" xmlns:xlink="http://www.w3.org/1999/xlink" x="0px" y="0px"
	 width="612px" height="792px" viewBox="0 0 612 792" style="enable-background:new 0 0 612 792;" xml:space="preserve">
<style type="text/css">
	.st0{fill:#172C1B;}
	.st1{fill:#1C301F;}
	.st2{fill:#1D3020;}
	.st3{fill:#233625;}
	.st4{fill:#EDEEEB; fill-opacity:0;}
	.st5{fill:#E0E1DC; fill-opacity:0;}
	.st6{fill:#C4C8BF; fill-opacity:0;}
	.st7{fill:#E8E9E4; fill-opacity:0;}
	.st8{fill:#B6BBB0; fill-opacity:0;}
</style>
<g>
	<g>
		<path class="st0" d="M262.56,452.85c-7.26,0.08-14.24,0.16-21.22,0.23c-1.02,0.01-2.06,0.02-3.07-0.11
			c-3.47-0.44-5.84-3.15-5.93-6.65c-0.79-32.55-1.59-65.11-2.39-97.66c-0.3-12.19-0.64-24.37-0.96-36.55c-0.02-0.92,0-1.83,0-2.99
			c-1.28,0.52-1.22,1.61-1.47,2.36c-7.89,23.12-15.75,46.24-23.6,69.37c-7.29,21.46-14.57,42.92-21.88,64.37
			c-0.36,1.05-0.76,2.11-1.32,3.06c-1.01,1.69-2.4,2.61-4.57,2.55c-5.67-0.16-11.36,0.03-17.03-0.18c-5.67-0.21-5.54-0.12-7.31-5.32
			c-9.71-28.48-19.42-56.96-29.13-85.44c-13.01-38.15-26-76.3-39.08-114.42c-0.97-2.82-0.96-5.47-0.18-8.18
			c0.81-2.85,2.78-4.61,5.75-4.97c1.56-0.19,3.16-0.08,4.74-0.08c13.5,0.07,27,0.15,40.5,0.23c0.84,0,1.68,0,2.51,0.04
			c2.85,0.14,4.77,1.19,5.71,4.26c3.52,11.45,7.26,22.82,10.94,34.22c6.94,21.48,13.88,42.95,20.84,64.42
			c0.28,0.85,0.64,1.67,1.14,3c2.13-5.29,4.06-10.07,5.97-14.86c10.66-26.75,21.3-53.5,32-80.24c0.68-1.7,1.66-3.32,2.69-4.85
			c2.07-3.09,5.04-4.57,8.78-4.48c7.91,0.18,15.82,0.49,23.72,0.5c39.1,0.01,78.19-0.08,117.29-0.09
			c17.87-0.01,35.75,0.07,53.62,0.11c3.34,0.01,4.48,0.89,5.09,4.18c0.22,1.18,0.21,2.4,0.22,3.61c0.03,3.63,0.01,7.25,0.01,10.94
			c0.24-0.45,0.57-0.94,0.78-1.47c1.57-4.07,3.08-8.17,4.71-12.21c0.51-1.27,1.21-2.53,2.08-3.59c1.07-1.3,2.67-1.53,4.32-1.51
			c6.24,0.07,12.48,0.23,18.71,0.09c4.3-0.1,6.01,0.79,7.99,5.79c1.88,4.75,3.42,9.62,5.12,14.44
			c21.79,61.94,43.57,123.88,65.36,185.83c0.71,2.02,1.35,4.05,1.11,6.25c-0.43,3.9-3.06,6.57-6.99,6.61
			c-7.73,0.08-15.45,0.07-23.18-0.05c-3.79-0.06-5.81-1.85-7.15-5.51c-7.3-19.97-14.62-39.93-21.95-59.89
			c-0.13-0.35-0.34-0.66-0.63-1.23c-10.67,0.29-21.43,0.59-32.37,0.89c-0.67,1.75-1.34,3.46-1.98,5.18
			c-5.43,14.73-10.77,29.49-16.32,44.17c-1.6,4.24-3.79,8.26-5.71,12.39c-0.92,1.97-2.54,2.38-4.59,2.39
			c-24.48,0.19-48.97,0.44-73.45,0.68c-2.7,0.03-5.4,0.13-8.1,0.2c-3.7,0.09-6.11-2.08-6.38-5.82c-0.08-1.11,0.01-2.23,0.01-3.35
			c-0.18-57.88-0.37-115.76-0.55-173.63c0-0.64-0.07-1.28-0.11-2.12c-11.1,0-22.12,0-33.42,0c0,0.85,0,1.66,0,2.47
			c0.16,56.39,0.32,112.78,0.47,169.17c0.01,1.86-0.06,3.72-0.04,5.58c0.04,4.46-2.68,7.33-7.22,7.44
			c-6.51,0.16-13.03,0.24-19.55,0.36C264.89,452.8,263.87,452.83,262.56,452.85z M400.51,369.46c-2.7,8-5.44,16-8.11,24.02
			c-4.84,14.53-9.66,29.08-14.47,43.62c-0.77,2.34,0.02,3.39,2.36,3.33c8.65-0.24,17.3-0.46,25.95-0.7
			c0.91-0.02,1.83-0.08,2.78-0.13c0.29-0.71,0.55-1.29,0.77-1.89c6.82-18.57,13.62-37.15,20.48-55.71c0.7-1.9,1.81-3.64,2.68-5.48
			c0.56-1.18,1.46-1.53,2.7-1.54c3.81-0.04,7.62-0.09,11.43-0.23c10.78-0.39,21.57-0.73,32.34-1.29c3.29-0.17,5.29,1.28,6.8,3.85
			c0.6,1.03,1.07,2.16,1.48,3.29c6.88,18.85,13.74,37.7,20.61,56.55c0.31,0.85,0.67,1.68,0.98,2.45c3.34,0,6.45,0,9.83,0
			c-22.72-64.6-45.36-128.95-67.98-193.27c-3.16-0.17-6.02-0.32-8.92-0.48c-0.36,0.99-0.66,1.76-0.92,2.54
			c-2.23,6.6-4.46,13.2-6.68,19.8C423.29,301.81,411.96,335.42,400.51,369.46z M167.4,357.4c-0.7-1.92-1.46-3.81-2.09-5.75
			c-11.15-34.36-22.29-68.72-33.43-103.08c-0.25-0.76-0.56-1.51-0.89-2.4c-10.89,0-21.64,0-32.66,0
			c21.7,63.61,43.36,127.1,65.01,190.55c2.48,0.13,4.69,0.25,6.93,0.37c0.31-0.87,0.57-1.56,0.81-2.26
			c6.29-18.46,12.57-36.92,18.87-55.37c4.38-12.83,8.59-25.72,13.22-38.46c11.22-30.88,22.65-61.69,33.97-92.53
			c0.27-0.74,0.37-1.53,0.64-2.71c-2.88,0-5.37,0-7.86,0c-2.63,0-2.64-0.01-3.61,2.42c-7.84,19.67-15.69,39.34-23.53,59.01
			c-8.22,20.62-16.43,41.24-24.65,61.85c-0.9,2.25-1.09,2.37-3.18,2.34c-2.13-0.03-2.47-0.27-3.23-2.33
			C170.33,365.29,168.95,361.54,167.4,357.4z M298.62,245.38c-0.47,0-0.93,0-1.4,0.01c-6.16,0.08-5.44-0.76-5.46,5.55
			c-0.01,2.96,0.21,3.13,3.2,3.13c12.01-0.01,24.01-0.02,36.02-0.04c0.74,0,1.49-0.03,2.23,0.03c3.7,0.32,6.34,3.12,6.42,6.81
			c0.03,1.21-0.05,2.42-0.04,3.63c0.05,25.58,0.08,51.17,0.17,76.75c0.1,31.72,0.25,63.44,0.39,95.17c0,0.98,0.12,1.96,0.19,3.03
			c6.99,0,13.66,0,20.29,0c0.2-0.48,0.37-0.81,0.49-1.16c2.88-8.34,5.84-16.65,8.59-25.03c0.71-2.16,1.08-4.53,1.1-6.81
			c0.23-34.33,0.36-68.65,0.52-102.98c0.07-14.98,0.17-29.95,0.17-44.93c0-2.01,0.61-3.54,2.36-4.33c1.31-0.59,2.82-0.98,4.25-1.01
			c10.51-0.28,21.01-0.44,31.52-0.66c0.99-0.02,1.98-0.23,3.18-0.38c0-1.24,0.01-2.24,0-3.24c-0.07-4.1-0.07-4.11-4.19-4.09
			C372.14,245,335.66,245.19,298.62,245.38z M241.7,274.75c0.49,19.34,0.97,38.69,1.48,58.03c0.46,17.39,0.98,34.78,1.44,52.17
			c0.45,17.11,0.85,34.22,1.28,51.34c0.02,0.91,0.08,1.82,0.14,3.02c11.01-0.15,21.84-0.3,32.96-0.45c0-1.16,0-2.07,0-2.97
			c-0.14-57.4-0.26-114.81-0.43-172.21c-0.01-5.11-0.22-10.22-0.38-15.33c-0.09-2.86-0.13-2.88-3.1-2.85
			c-6.79,0.06-13.59,0.14-20.38,0.22c-0.63,0.01-1.26,0.13-2.01,0.2c-1.67,4.19-3.36,8.31-4.97,12.46
			C245.7,263.65,243.73,268.96,241.7,274.75z M418.7,265c-1.48,0.1-2.97,0.25-4.45,0.3c-7.91,0.24-15.81,0.43-23.72,0.69
			c-1.74,0.06-3.48,0.3-5.37,0.47c-0.14,35.2-0.33,70.13-0.35,105.07c0.18,0.02,0.36,0.03,0.55,0.05
			c11.95-35.47,23.9-70.93,35.92-106.61C420.28,264.97,419.72,264.97,418.7,265z"/>
		<path class="st1" d="M324.76,507.31c0.81-0.19,1.61-0.42,2.43-0.57c2.35-0.43,3.53-1.77,4.1-4.16c0.92-3.85,2.82-7.31,5.78-10.01
			c1.28-1.17,2.81-2.16,4.39-2.87c2.31-1.04,4.71-0.45,6.14,1.2c1.61,1.86,1.52,3.93,0.5,5.99c-2.11,4.25-5.25,7.65-9.03,10.47
			c-0.74,0.55-1.49,1.09-2.21,1.61c-0.25,1.86,0.26,3.41,1.34,4.78c1.2,1.51,2.61,1.85,4.13,0.68c1.23-0.94,2.42-2.1,3.22-3.41
			c1.69-2.77,3.21-5.66,4.63-8.58c2.44-5.01,4.74-10.1,7.13-15.13c0.44-0.92,0.91-1.86,1.56-2.62c1.84-2.13,4.7-1.71,5.92,0.85
			c0.31,0.66,0.47,1.41,0.63,2.13c0.78,3.63,1.54,7.27,2.35,11.12c0.56-0.3,1.15-0.51,1.61-0.87c3.06-2.42,6.18-4.79,9.11-7.37
			c1.58-1.4,2.83-3.18,4.21-4.79c0.36-0.42,0.65-0.91,1.04-1.31c1.49-1.56,3.39-1.83,4.71-0.69c1.24,1.07,1.47,2.95,0.19,4.53
			c-2.27,2.79-3.03,6.12-3.79,9.47c-0.49,2.17-0.9,4.34-0.34,7.05c1-0.69,1.87-1.14,2.56-1.78c2.66-2.47,5.31-4.95,7.86-7.53
			c0.61-0.61,0.98-1.55,1.25-2.4c1.08-3.38,2.28-6.72,4.52-9.51c1.09-1.35,2.38-2.66,3.84-3.58c2.16-1.36,4.41-1.14,6.47,0.55
			c0.59,0.49,1.34,0.93,2.07,1.07c2.55,0.46,3.49,1.45,3.51,4.11c0.03,2.98,0.01,5.95,0.02,8.93c0,0.35,0.07,0.71,0.16,1.48
			c0.66-0.74,1.13-1.22,1.53-1.75c3.06-4.1,6.09-8.22,9.18-12.3c0.67-0.88,1.44-1.73,2.32-2.4c2.49-1.91,5.32-0.91,5.97,2.15
			c0.26,1.25,0.29,2.6,0.13,3.87c-0.52,4.05-1.18,8.08-1.89,12.8c0.94-1.06,1.46-1.73,2.08-2.3c1.28-1.21,2.5-2.54,3.95-3.51
			c2.9-1.95,5.56-1.24,7.28,1.78c0.46,0.8,0.8,1.68,1.19,2.52c1.57,3.32,3.25,4.19,6.92,3.6c3.3-0.53,6.29-1.89,8.74-4.08
			c2.13-1.9,3.96-4.15,5.82-6.34c1.42-1.67,1.57-3.52,0.2-5.36c-0.16-0.22-0.24-0.49-0.34-0.75c-0.03-0.07,0.02-0.16,0.04-0.25
			c2.93,0.18,4.98,2.41,4.83,5.43c-0.06,1.09-0.28,2.25-0.75,3.23c-3.36,7.03-8.38,12.28-16.17,14.24c-1.94,0.49-4.09,0.56-6.07,0.3
			c-3.31-0.43-5.86-2.28-7.48-5.25c-0.58-1.06-1.03-2.18-1.58-3.37c-1.18,0.01-1.7,1.02-2.3,1.73c-1.84,2.21-3.55,4.55-5.37,6.78
			c-0.87,1.08-1.76,2.21-2.85,3.03c-2.44,1.84-5.42,0.56-5.81-2.46c-0.14-1.08-0.01-2.24,0.18-3.32c0.71-4.03,1.5-8.04,2.24-12.06
			c0.15-0.81,0.24-1.64,0.46-3.09c-0.83,0.92-1.33,1.37-1.71,1.91c-3.3,4.73-6.63,9.44-9.82,14.24c-0.62,0.93-0.93,2.21-0.99,3.35
			c-0.36,6.99-1.01,13.94-3.35,20.58c-1.08,3.04-2.43,6.05-4.12,8.79c-1.08,1.74-2.81,3.29-4.59,4.33c-3.72,2.16-7.51,0.32-8.7-3.83
			c-0.75-2.63-0.48-5.26,0.44-7.68c1.44-3.81,3.01-7.61,5-11.15c2.32-4.12,5.14-7.97,7.78-11.9c0.76-1.13,1.33-2.22,0.8-3.99
			c-0.78,1.14-1.38,2.09-2.05,3c-1.77,2.41-3.79,4.53-7.15,3.85c-3.19-0.64-4.32-3.24-5.17-5.99c-0.13-0.42-0.19-0.87-0.38-1.71
			c-0.76,0.8-1.27,1.38-1.82,1.92c-1.86,1.81-3.54,3.88-5.64,5.35c-4.01,2.79-8.3,1.16-9.53-3.59c-0.59-2.29-0.5-4.76-0.73-7.34
			c-0.38,0.21-0.93,0.43-1.38,0.77c-2.09,1.55-4.11,3.2-6.25,4.7c-1.23,0.86-1.78,1.84-2.03,3.38c-0.43,2.63-1.12,5.27-2.1,7.75
			c-0.98,2.48-2.91,4.28-5.44,5.35c-4.04,1.7-9.38-0.48-9.59-5.7c-0.71,0.76-1.24,1.32-1.75,1.89c-1.58,1.75-3.34,3.21-5.64,3.96
			c-3.83,1.24-7.79-0.01-10.32-3.55c-1.11-1.56-1.83-3.41-2.83-5.33c-2.94,0.81-6.16,1.62-9.31,2.61c-0.68,0.22-1.2,1.06-1.71,1.68
			c-1.6,1.93-3.04,4.01-4.76,5.82c-2.22,2.34-5.01,3.85-8.17,4.56c-2.68,0.61-5.83-0.12-6.37-2.15c-0.79-2.97-2.83-5.56-2.71-8.75
			c0.26-7.16,0.5-14.32,0.93-21.46c0.31-5.1,0.92-10.19,1.42-15.28c0.08-0.83,0.25-1.65,0.43-2.47c0.25-1.13,0.99-1.83,2.13-1.87
			c1.26-0.04,2.18,0.68,2.43,1.89c0.34,1.62,0.49,3.27,0.76,5.22c0.56-0.62,0.99-1.14,1.46-1.61c1.82-1.84,3.46-3.95,5.53-5.46
			c4.41-3.2,9.03-2.07,11.88,2.62c1.63,2.68,2.31,5.66,2.71,8.72c0.92,6.89-0.23,13.52-2.67,20.34
			C324.29,507.17,324.53,507.24,324.76,507.31z M359.97,512.75c0.02-0.14,0.04-0.28,0.06-0.42c-0.08,0.13-0.16,0.26-0.55,0.33
			c-0.13,0.15-0.27,0.31-0.72,0.6c-0.44,0.53-0.87,1.06-1.54,1.72c0.19,0.12,0.39,0.24,0.95,0.23c0.51-0.57,1.02-1.14,1.7-1.97
			c0.02-0.07,0.06-0.15,0.04-0.21C359.86,512.91,359.79,512.8,359.97,512.75z M318.4,502.25c0.29-1.08,0.61-2.15,0.86-3.23
			c1.19-5.15,1.38-10.31-0.11-15.44c-0.38-1.31-0.72-2.7-2.1-3.36c-2.15,0.99-3.09,1.72-4.72,3.88c-6.84,9.07-8.27,19.58-8.34,30.71
			c2.56-1.29,4.74-2.89,7.18-3.51c3.64-0.94,5.42-3.19,6.32-6.54C317.7,504.06,318.02,503.38,318.4,502.25z M409.02,486.62
			c-0.4-0.47-0.81-0.94-1.2-1.41c-4.54,3.38-7.59,13.35-5.65,18.12C404.82,500.66,408.4,492.32,409.02,486.62z M408.75,522.3
			c0.22-1.36,0.45-2.72,0.7-4.25c-4.54,4.68-8.56,14.92-7.3,18.54c1.65-1.07,2.69-2.64,3.34-4.36
			C406.67,529.11,407.59,525.9,408.75,522.3z M360.17,496.29c-2.18,3.47-5.17,10.37-5.33,12.67c2.27-1.88,4.32-3.58,6.36-5.28
			c-0.21-2.29-0.42-4.57-0.63-6.86C360.56,496.73,360.49,496.65,360.17,496.29z M342.84,495.61c-0.81-1.56-1.83-1.01-2.52-0.04
			c-1.08,1.52-1.93,3.2-2.88,4.81c0.17,0.11,0.33,0.23,0.5,0.34C339.9,499.53,341.99,498.48,342.84,495.61z M354.19,509.06
			c0.13,0.04,0.26,0.09,0.39,0.13C354.54,509.06,354.5,508.92,354.19,509.06z"/>
		<path class="st2" d="M190.23,485.58c0.89-3.76,1.7-7.29,2.59-10.8c0.22-0.89,0.63-1.77,1.12-2.54c0.71-1.1,1.75-1.72,3.1-1.21
			c1.28,0.48,1.92,1.51,1.77,2.85c-0.13,1.19-0.44,2.37-0.72,3.54c-1.71,7.17-2.96,14.4-2.56,21.81c0.17,3.24,0.6,6.44,2.12,10.01
			c0.51-1.36,0.92-2.25,1.17-3.18c1.72-6.47,3.4-12.94,5.11-19.41c0.26-0.98,0.54-1.99,1.03-2.86c0.77-1.37,2.2-1.84,3.59-1.4
			c1.42,0.45,2.16,1.47,2.17,2.91c0,1.01-0.2,2.03-0.39,3.03c-1.39,7.27-2.22,14.56-0.22,21.84c0.54,1.95,1.31,3.88,2.24,5.68
			c0.61,1.17,1.71,2.08,2.58,3.09c1.93-0.91,2.56-2.42,2.97-3.89c1.2-4.38,2.32-8.79,3.31-13.23c1.21-5.44,2.02-10.98,3.46-16.35
			c1.62-6.04,4.62-11.39,9.85-15.15c1.42-1.02,3.03-1.79,4.63-2.5c0.72-0.32,1.65-0.39,2.45-0.29c1.92,0.24,2.59,1.97,1.35,3.48
			c-0.7,0.85-1.55,1.63-2.45,2.27c-6.23,4.41-9.33,10.73-10.86,17.94c-1.25,5.91-2.16,11.89-3.41,17.8
			c-0.61,2.9-1.57,5.73-2.55,8.53c-0.48,1.38-1.23,2.72-2.09,3.92c-3.11,4.34-7.89,4.9-11.77,1.26c-1.46-1.37-2.68-3.1-3.67-4.86
			c-1.04-1.85-1.66-3.92-2.62-6.26c-0.48,0.83-0.87,1.57-1.32,2.27c-2.44,3.82-6.21,3.93-8.8,0.2c-2-2.89-2.89-6.22-3.46-9.64
			C188.91,498.21,189.2,492.01,190.23,485.58z"/>
		<path class="st2" d="M261.97,472.85c3.26-0.45,4.56,0.84,3.88,3.87c-0.65,2.9-1.64,5.71-2.4,8.58c-0.83,3.12-1.58,6.27-2.37,9.45
			c2.48-0.48,4.66-1.25,6.82-1.23c2.55,0.03,4.59,1.65,5.8,3.86c1.1,2.01,1.79,4.24,2.8,6.7c1.4,0.24,3.24,0.57,5.46,0.95
			c-1.18,1.63-2.56,1.97-3.84,2.3c-1.62,0.42-2.35,1.29-2.84,2.94c-1.76,6.02-6.81,9.75-12.81,9.75c-4.37,0-6.36-3.33-4.29-7.21
			c1.17-2.2,2.99-3.83,5.13-5c2.26-1.24,4.65-2.27,7.12-3.45c0.28-1.39-0.29-2.75-1.09-4.01c-1.17-1.83-2.49-2.11-4.2-0.78
			c-0.94,0.73-1.81,1.64-2.47,2.62c-1.14,1.69-2.15,3.48-3.11,5.27c-1.97,3.66-3.61,3.99-6.6,1.15c-0.9,1.18-1.67,2.47-2.71,3.49
			c-2.04,2-4.02,4.2-6.42,5.7c-4.6,2.86-9.06,1.25-11.06-3.81c-0.74-1.87-0.9-3.96-1.3-5.96c-0.26-1.34-0.53-2.68-0.68-4.04
			c-0.06-0.6,0.07-1.28,0.3-1.85c0.51-1.26,1.26-2.43,1.68-3.72c1.02-3.12,2.33-6.07,4.52-8.57c1.56-1.79,3.4-3.17,5.75-3.74
			c3.89-0.95,7.08,1.37,7.4,5.39c0.14,1.74-0.33,3.3-1.35,4.72c-2.93,4.07-7.86,8.29-12.6,10.67c-0.03,1.87,0.22,3.76,1.13,5.52
			c0.82,1.6,1.84,2.01,3.44,1.21c1.15-0.57,2.31-1.31,3.16-2.25c1.87-2.06,3.76-4.16,5.25-6.48c3.54-5.5,6.32-11.33,7.53-17.86
			c0.66-3.55,1.71-7.04,2.78-10.5C260.18,475.26,261.11,474.15,261.97,472.85z M268.36,511.44c-1.52,0.57-2.86,1.39-3.77,2.81
			c1.68-0.41,3.35-0.81,4.26-2.75C268.82,511.54,268.78,511.58,268.36,511.44z M239.54,497.28c1.82-1.83,4.13-3.3,4.61-6.27
			c-3.21,0.62-5.77,3.85-5.84,7.2C238.65,497.98,238.94,497.76,239.54,497.28z"/>
		<path class="st3" d="M392.08,476.75c-1.1,1.68-2.42,2.31-4.17,1.59c-1.33-0.54-2.04-1.79-1.95-3.38c0.1-1.8,0.83-3.27,2.54-4
			c2.08-0.89,4.29,0.61,4.26,2.89C392.74,474.76,392.37,475.65,392.08,476.75z"/>
		<path class="st4" d="M408.69,522.52c-1.1,3.39-2.02,6.59-3.2,9.71c-0.65,1.71-1.68,3.29-3.34,4.36
			c-1.26-3.61,2.76-13.85,7.3-18.54C409.2,519.58,408.98,520.94,408.69,522.52z"/>
		<path class="st4" d="M360.31,496.42c0.18,0.22,0.25,0.3,0.25,0.39c0.21,2.29,0.42,4.57,0.63,6.86c-2.05,1.7-4.09,3.4-6.36,5.28
			C355.01,506.65,357.99,499.76,360.31,496.42z"/>
		<path class="st5" d="M342.81,495.81c-0.83,2.67-2.92,3.72-4.88,4.91c-0.17-0.11-0.33-0.23-0.5-0.34c0.95-1.61,1.8-3.29,2.88-4.81
			C341.01,494.6,342.03,494.04,342.81,495.81z"/>
		<path class="st6" d="M357.45,514.85c0.44-0.53,0.87-1.06,1.61-1.55c0.41,0.1,0.52,0.15,0.62,0.21c-0.51,0.57-1.02,1.14-1.79,1.64
			C357.57,515.01,357.51,514.93,357.45,514.85z"/>
		<path class="st4" d="M354.32,508.93c0.17,0,0.22,0.13,0.26,0.26C354.45,509.14,354.32,509.1,354.32,508.93z"/>
		<path class="st6" d="M359.79,512.72c0.08-0.13,0.16-0.26,0.24-0.39c-0.02,0.14-0.04,0.28-0.16,0.39
			C359.76,512.7,359.79,512.72,359.79,512.72z"/>
		<path class="st6" d="M359.74,512.69c0.04,0.11,0.11,0.22,0.15,0.35c0.02,0.06-0.03,0.14-0.13,0.34c-0.19,0.08-0.3,0.02-0.55-0.14
			c-0.01-0.26,0.12-0.42,0.41-0.54C359.79,512.72,359.76,512.7,359.74,512.69z"/>
		<path class="st6" d="M357.71,515.22c-0.12,0.01-0.31-0.11-0.39-0.3C357.51,514.93,357.57,515.01,357.71,515.22z"/>
		<path class="st7" d="M239.39,497.42c-0.45,0.35-0.74,0.56-1.08,0.8c0.07-3.36,2.63-6.59,5.84-7.2
			C243.68,493.98,241.36,495.46,239.39,497.42z"/>
		<path class="st8" d="M268.69,511.58c-0.75,1.86-2.42,2.27-4.1,2.67c0.91-1.42,2.25-2.24,3.95-2.73
			C268.72,511.6,268.69,511.58,268.69,511.58z"/>
		<path class="st8" d="M268.73,511.61c0.05-0.03,0.09-0.07,0.04-0.07C268.69,511.58,268.72,511.6,268.73,511.61z"/>
		<path class="st0" d="M456.87,304.92c0.33-1.73,1.49-2.11,2.75-2.05c1.36,0.07,1.98,1.01,2.4,2.31
			c3.85,11.91,7.77,23.81,11.67,35.71c2.02,6.17,4.07,12.33,6.09,18.51c0.83,2.53,0.34,3.53-2.2,4.37
			c-0.78,0.26-1.63,0.39-2.45,0.41c-11.06,0.38-22.13,0.73-33.2,1.09c-0.46,0.01-0.94,0.05-1.39,0c-2.09-0.24-3.17-1.61-2.65-3.67
			c0.77-3.06,1.62-6.1,2.63-9.09c4.77-14.05,9.61-28.09,14.43-42.13C455.57,308.62,456.19,306.88,456.87,304.92z M459.06,338.93
			c-1.45,5.04-2.9,10.07-4.45,15.44c3.51-0.34,6.64,0.07,9.85-0.82c-1.61-5.06-3.13-9.83-4.67-14.6
			C459.74,338.79,459.43,338.71,459.06,338.93z"/>
	</g>
</g>
</svg>
